<?xml version="1.0" encoding="UTF-8" standalone="no"?>
<svg
   version="1.1"
   id="body"
   width="2.2048218in"
   height="2.2048991in"
   viewBox="0 0 0.27560272 0.27561238"
   preserveAspectRatio="none"
   sodipodi:docname="icon_01.svg"
   inkscape:version="1.4.2 (ebf0e940, 2025-05-08)"
   xmlns:inkscape="http://www.inkscape.org/namespaces/inkscape"
   xmlns:sodipodi="http://sodipodi.sourceforge.net/DTD/sodipodi-0.dtd"
   xmlns="http://www.w3.org/2000/svg"
   xmlns:svg="http://www.w3.org/2000/svg"
   xmlns:rdf="http://www.w3.org/1999/02/22-rdf-syntax-ns#"
   xmlns:cc="http://creativecommons.org/ns#"
   xmlns:dc="http://purl.org/dc/elements/1.1/">
  <defs
     id="defs550" />
  <sodipodi:namedview
     id="namedview550"
     pagecolor="#ffffff"
     bordercolor="#000000"
     borderopacity="0.25"
     inkscape:showpageshadow="2"
     inkscape:pageopacity="0.0"
     inkscape:pagecheckerboard="0"
     inkscape:deskcolor="#d1d1d1"
     inkscape:document-units="in"
     inkscape:zoom="0.54123919"
     inkscape:cx="496.08381"
     inkscape:cy="88.685374"
     inkscape:window-width="1632"
     inkscape:window-height="755"
     inkscape:window-x="130"
     inkscape:window-y="31"
     inkscape:window-maximized="0"
     inkscape:current-layer="content"
     showguides="true">
    <sodipodi:guide
       position="-1.5009115,5.5071165"
       orientation="-0.70710678,-0.70710678"
       id="guide550"
       inkscape:locked="false" />
  </sodipodi:namedview>
  <title
     id="title1">SVG drawing</title>
  <desc
     id="desc1">This was produced by version 4.4 of GNU libplot, a free library for exporting 2-D vector graphics.</desc>
  <g
     id="content"
     transform="matrix(0.0017361,0,0,-0.0017361,-0.03032047,0.53453651)"
     xml:space="preserve"
     stroke="#000000"
     stroke-linecap="butt"
     stroke-linejoin="miter"
     stroke-miterlimit="10.433"
     stroke-dasharray="none"
     stroke-dashoffset="0"
     stroke-opacity="1"
     fill="none"
     fill-rule="evenodd"
     fill-opacity="1"
     font-style="normal"
     font-variant="normal"
     font-weight="normal"
     font-stretch="normal"
     font-size-adjust="none"
     letter-spacing="normal"
     word-spacing="normal"
     text-anchor="start">




















































































































































































fill=&quot;#e2e8e5&quot; fill-rule=&quot;nonzero&quot; /&gt;
fill=&quot;#e2e8e5&quot; fill-rule=&quot;nonzero&quot; /&gt;



























































































<g
   id="icon_01"
   inkscape:label="icon_01"><path
     d="m 127.94,159.69 0.53,0.23 0.52,0.23 0.51,0.23 0.51,0.24 0.51,0.24 0.5,0.24 0.5,0.24 0.49,0.25 c 4.55,2.28 8.53,4.82 11.92,7.37 3.18,2.41 5.84,4.82 7.98,6.99 2,2.03 3.55,3.85 4.66,5.25 1.05,1.32 1.71,2.27 2,2.7 0.14,0.2 0.16,0.23 0.15,0.21 -0.04,-0.06 -0.16,-0.24 -0.35,-0.54 -0.39,-0.59 -1.05,-1.65 -1.97,-3.05 -0.99,-1.48 -2.24,-3.33 -3.73,-5.36 -1.52,-2.07 -3.28,-4.29 -5.29,-6.49 -1.97,-2.17 -4.16,-4.28 -6.56,-6.12 -2.31,-1.77 -4.79,-3.27 -7.4,-4.27 -2.48,-0.96 -5.11,-1.46 -7.69,-1.37 -2.52,0.08 -5.08,0.74 -7.45,1.89 -4.96,2.38 -9.32,6.84 -13.06,12.04 -3.95,5.5 -7.224,11.69 -10.208,18.02 -1.485,3.15 -2.875,6.31 -4.2,9.43 -1.304,3.06 -2.535,6.08 -3.71,9.01 -1.141,2.85 -2.223,5.6 -3.254,8.24 -0.993,2.55 -1.934,4.97 -2.813,7.26 -0.84,2.19 -1.625,4.24 -2.336,6.15 -0.679,1.82 -1.289,3.49 -1.808,5.02 -0.493,1.44 -0.907,2.76 -1.207,3.93 -0.286,1.1 -0.469,2.09 -0.52,2.94 -0.094,1.59 0.34,2.76 1.34,3.52 1.039,0.79 2.73,1.23 4.855,1.57 2.321,0.37 5.161,0.62 8.352,0.94 3.43,0.34 7.203,0.73 11.199,1.25 4.16,0.54 8.48,1.2 12.85,1.98 4.4,0.8 8.75,1.69 12.97,2.67 4.12,0.96 8.01,1.99 11.61,3.1 3.39,1.04 6.44,2.14 9.07,3.37 2.4,1.13 4.41,2.36 5.9,3.81 1.35,1.32 2.27,2.86 2.63,4.64 0.33,1.68 0.17,3.65 -0.48,5.75 -1.3,4.22 -4.64,9.24 -9.11,13.81 -4.62,4.73 -10.37,8.9 -16.21,12.06 -5.78,3.12 -11.6,5.26 -16.48,6.4 -4.95,1.16 -9.26,1.31 -12.35,0.32 -1.783,-0.58 -3.314,-1.54 -4.619,-2.83 -1.453,-1.44 -2.671,-3.31 -3.742,-5.51 -1.222,-2.52 -2.238,-5.43 -3.172,-8.66 -1.011,-3.49 -1.906,-7.28 -2.812,-11.28 -0.93,-4.11 -1.844,-8.32 -2.899,-12.45 -1.078,-4.25 -2.289,-8.34 -3.832,-12.12 -3.011,-7.35 -7.574,-13.35 -13.796,-16.92 -3.227,-1.85 -6.872,-3.13 -10.774,-3.95 -3.969,-0.83 -8.125,-1.16 -12.312,-1.1 -2.086,0.03 -4.149,0.16 -6.172,0.39 -1.926,0.21 -3.797,0.5 -5.602,0.88 -1.754,0.37 -3.414,0.81 -4.961,1.32 -1.429,0.48 -2.746,1.01 -3.929,1.61 -1.094,0.56 -2.059,1.16 -2.852,1.82 -0.711,0.59 -1.285,1.23 -1.672,1.9 -0.676,1.17 -0.68,2.6 -0.113,3.72 0.625,1.24 1.808,2.3 3.164,3.21 1.488,0.99 3.156,1.79 4.84,2.47 1.734,0.7 3.433,1.25 4.992,1.68 1.527,0.43 2.887,0.72 3.969,0.86 1.031,0.13 1.793,0.11 2.191,-0.16 0.371,-0.26 0.398,-0.78 0.105,-1.59"
     stroke="#e2e8e5"
     stroke-width="0.35"
     stroke-linecap="round"
     stroke-linejoin="round"
     id="path257" /><path
     d="m 39.344,256.98 -0.269,-0.53 -0.249,-0.54 -0.23,-0.54 -0.211,-0.53 -0.191,-0.54 -0.172,-0.53 -0.153,-0.53 -0.134,-0.52 -0.115,-0.52 -0.096,-0.52 -0.077,-0.51 -0.058,-0.5 -0.039,-0.5 -0.021,-0.48 -10e-4,-0.48 0.017,-0.46 0.035,-0.46 0.055,-0.44 0.073,-0.42 0.091,-0.42 0.11,-0.4 0.128,-0.38 0.147,-0.37 0.164,-0.35 0.184,-0.33 0.201,-0.31 0.22,-0.3 0.237,-0.27 0.256,-0.25 0.274,-0.23 0.291,-0.2 0.31,-0.18 c 3.399,-1.79 8.559,1.36 11.527,7.05 2.969,5.69 2.622,11.76 -0.777,13.55 -3.394,1.79 -8.559,-1.37 -11.527,-7.06 z"
     stroke="#e2e8e5"
     stroke-width="0.35"
     stroke-linecap="round"
     stroke-linejoin="round"
     id="path258" /><path
     d="m 108.34,154.27 0.47,0.07 0.46,0.07 0.46,0.07 0.46,0.08 c 5.24,0.9 10.07,2.25 14.42,3.84 4.12,1.51 7.77,3.22 10.93,4.95 2.96,1.62 5.48,3.25 7.52,4.69 1.92,1.36 3.43,2.55 4.51,3.41 1.02,0.81 1.66,1.33 1.92,1.46 0.51,0.25 -0.48,-1.11 -2.52,-3.42 -1.04,-1.19 -2.36,-2.6 -3.92,-4.09 -1.55,-1.5 -3.34,-3.06 -5.32,-4.53 -1.95,-1.44 -4.07,-2.77 -6.34,-3.83 -2.19,-1.01 -4.51,-1.77 -6.87,-2.09 -2.29,-0.33 -4.64,-0.24 -6.91,0.28 -2.26,0.54 -4.47,1.52 -6.53,2.85 -8.84,5.77 -14.67,17.14 -19.389,28.64 -2.351,5.73 -4.339,11.4 -6.125,16.82 -0.859,2.61 -1.664,5.14 -2.41,7.57 -0.726,2.35 -1.394,4.6 -2.011,6.73 -0.586,2.04 -1.122,3.98 -1.59,5.78 -0.446,1.72 -0.828,3.33 -1.133,4.8 -0.289,1.4 -0.504,2.68 -0.621,3.84 -0.113,1.1 -0.137,2.09 -0.043,2.96 0.172,1.65 0.804,2.9 1.902,3.76 1.133,0.87 2.805,1.42 4.836,1.83 2.195,0.44 4.82,0.74 7.738,1.06 3.11,0.34 6.508,0.7 10.086,1.17 7.54,0.97 15.43,2.34 22.97,4.26 3.67,0.93 7.16,1.97 10.39,3.14 3.08,1.12 5.87,2.34 8.29,3.72 2.26,1.29 4.17,2.73 5.62,4.36 1.36,1.53 2.33,3.27 2.81,5.18 0.9,3.63 -0.01,8.26 -2.35,12.83 -2.4,4.7 -6.23,9.41 -10.61,13.49 -4.4,4.09 -9.28,7.48 -13.72,10.08 -4.4,2.56 -8.42,4.43 -11.46,5.39 -3.27,1.04 -5.87,0.91 -7.49,-0.31 -1.09,-0.82 -1.93,-2.06 -2.67,-3.61 -0.86,-1.8 -1.57,-4 -2.24,-6.53 -0.77,-2.86 -1.45,-6.02 -2.161,-9.39 -0.765,-3.63 -1.551,-7.43 -2.484,-11.27 -1.903,-7.84 -4.332,-15.35 -8.508,-21.05 -2.09,-2.85 -4.648,-5.26 -7.637,-7.12 -3.078,-1.92 -6.644,-3.3 -10.554,-4.21 -4.055,-0.94 -8.442,-1.39 -12.996,-1.49 -4.606,-0.1 -9.254,0.17 -13.809,0.7 -2.234,0.26 -4.406,0.58 -6.504,0.95 -1.988,0.36 -3.887,0.75 -5.68,1.19 -1.718,0.43 -3.316,0.88 -4.777,1.37 -1.332,0.45 -2.531,0.92 -3.586,1.41 -0.945,0.45 -1.75,0.91 -2.387,1.4 -0.547,0.41 -0.965,0.85 -1.191,1.29 -0.371,0.73 -0.024,1.63 0.684,2.18 0.886,0.69 2.148,1.15 3.527,1.54 1.535,0.42 3.152,0.72 4.742,0.95 1.629,0.23 3.176,0.39 4.551,0.47 1.34,0.08 2.484,0.09 3.332,-0.01 0.808,-0.11 1.332,-0.31 1.48,-0.73 0.145,-0.4 -0.093,-1.04 -0.617,-1.92 -0.062,-0.11 -0.129,-0.21 -0.195,-0.32"
     stroke="#e2e8e5"
     stroke-width="0.35"
     stroke-linecap="round"
     stroke-linejoin="round"
     id="path259" /><path
     d="m 84.938,154.32 0.959,-0.13 0.956,-0.11 0.477,-0.06 0.475,-0.05 0.475,-0.05 0.474,-0.04 c 5.281,-0.49 10.363,-0.48 15.126,-0.1 4.55,0.37 8.77,1.07 12.58,1.95 3.61,0.84 6.85,1.85 9.65,2.86 2.64,0.95 4.89,1.91 6.71,2.72 3.36,1.51 5.27,2.48 5.61,2.32 0.33,-0.17 -0.76,-1.38 -2.86,-3.1 -1.04,-0.86 -2.34,-1.84 -3.85,-2.8 -1.49,-0.96 -3.17,-1.9 -5.01,-2.71 -1.78,-0.78 -3.71,-1.42 -5.72,-1.8 -1.95,-0.36 -3.98,-0.47 -6,-0.24 -3.93,0.45 -7.93,2.35 -11.25,5.28 -3.51,3.09 -6.439,7.27 -8.912,11.88 -2.57,4.78 -4.621,9.92 -6.398,15.12 -1.754,5.14 -3.192,10.21 -4.422,15.05 -0.594,2.34 -1.133,4.6 -1.617,6.79 -0.473,2.11 -0.895,4.13 -1.258,6.06 -0.688,3.64 -1.18,6.89 -1.371,9.68 -0.172,2.55 -0.082,4.73 0.406,6.44 0.461,1.62 1.328,2.88 2.559,3.78 1.269,0.93 2.972,1.56 4.968,2.05 2.125,0.52 4.598,0.89 7.297,1.27 2.852,0.4 5.928,0.8 9.138,1.28 3.31,0.5 6.72,1.09 10.13,1.79 3.43,0.72 6.83,1.55 10.1,2.51 3.21,0.96 6.25,2.04 9.07,3.27 2.7,1.18 5.15,2.5 7.27,4 2.01,1.42 3.72,3 5.03,4.75 2.43,3.3 3.45,7.45 2.89,11.82 -1.14,8.82 -8.36,18.56 -15.62,25.57 -3.56,3.44 -7.05,6.34 -9.79,8.6 -2.77,2.3 -4.83,4.03 -6.26,4.8 -0.75,0.41 -1.4,0.49 -1.83,0.28 -0.56,-0.28 -0.93,-0.99 -1.24,-1.94 -0.42,-1.25 -0.73,-2.88 -1.05,-4.81 -0.37,-2.26 -0.74,-4.84 -1.17,-7.7 -0.47,-3.13 -1,-6.45 -1.68,-9.85 -0.71,-3.54 -1.56,-7.06 -2.68,-10.41 -2.28,-6.77 -5.78,-12.59 -11.116,-16.16 -2.774,-1.86 -6.071,-3.18 -9.762,-4.02 -3.879,-0.89 -8.192,-1.27 -12.789,-1.31 -4.774,-0.04 -9.754,0.28 -14.809,0.82 -2.554,0.27 -5.09,0.59 -7.597,0.95 -2.418,0.35 -4.789,0.73 -7.094,1.14 -2.27,0.4 -4.449,0.81 -6.524,1.24 -1.945,0.4 -3.773,0.8 -5.48,1.2 -1.602,0.38 -3.059,0.75 -4.375,1.11 -1.18,0.33 -2.215,0.64 -3.109,0.94 -0.766,0.26 -1.391,0.5 -1.875,0.74 -0.372,0.19 -0.645,0.35 -0.739,0.53 -0.117,0.23 0.52,0.45 1.289,0.5 1.047,0.07 2.285,0.02 3.637,-0.07 1.477,-0.09 2.977,-0.22 4.418,-0.36 1.457,-0.16 2.805,-0.32 3.961,-0.51 1.113,-0.19 2.016,-0.39 2.617,-0.67 0.563,-0.26 0.836,-0.6 0.742,-1.09 -0.097,-0.48 -0.586,-1.17 -1.324,-2.06 -0.496,-0.6 -1.109,-1.31 -1.789,-2.14"
     stroke="#e2e8e5"
     stroke-width="0.35"
     stroke-linecap="round"
     stroke-linejoin="round"
     id="path260" /><path
     d="m 61.27,161.37 1.063,-0.48 1.067,-0.46 1.07,-0.45 1.073,-0.43 1.074,-0.41 1.076,-0.41 1.077,-0.38 1.078,-0.37 c 4.808,-1.62 9.597,-2.78 14.234,-3.54 4.473,-0.73 8.77,-1.09 12.793,-1.17 3.845,-0.08 7.415,0.09 10.645,0.41 3.06,0.29 5.8,0.71 8.17,1.14 2.24,0.41 4.15,0.82 5.67,1.15 2.85,0.61 4.34,0.87 4.48,0.48 0.12,-0.36 -0.98,-1.31 -2.97,-2.38 -0.97,-0.53 -2.16,-1.07 -3.5,-1.54 -1.31,-0.46 -2.78,-0.85 -4.35,-1.08 -3,-0.44 -6.46,-0.21 -9.66,1.09 -3.21,1.3 -6.258,3.71 -8.79,6.78 -2.675,3.26 -4.847,7.21 -6.656,11.45 -1.859,4.37 -3.309,8.95 -4.504,13.53 -1.183,4.53 -2.094,8.95 -2.805,13.17 -0.675,4.03 -1.16,7.79 -1.425,11.22 -0.25,3.2 -0.309,6.07 -0.09,8.54 0.207,2.3 0.668,4.28 1.453,5.86 1.504,3.01 4.547,4.74 8.434,5.85 2.097,0.59 4.453,1.06 6.976,1.54 2.637,0.49 5.427,0.98 8.297,1.55 5.94,1.18 11.98,2.65 17.59,4.74 2.74,1.03 5.33,2.18 7.69,3.5 2.28,1.28 4.35,2.71 6.1,4.3 3.33,3.02 5.55,6.76 6.31,10.88 0.74,4.06 0.13,8.61 -1.42,13.04 -3.16,8.96 -9.92,17.04 -14.54,23.17 -2.26,3 -3.97,5.6 -4.97,7.72 -0.5,1.05 -0.82,1.92 -1.02,2.66 -0.18,0.66 -0.26,1.08 -0.21,1.32 0.01,0.05 0.16,-0.17 0.27,-0.71 0.15,-0.78 0.28,-1.91 0.36,-3.36 0.1,-1.79 0.13,-3.9 0.05,-6.26 -0.08,-2.69 -0.28,-5.6 -0.66,-8.64 -0.39,-3.21 -0.96,-6.43 -1.78,-9.53 -0.85,-3.16 -1.95,-6.12 -3.42,-8.71 -2.98,-5.21 -7.78,-8.74 -14.23,-10.1 -3.499,-0.72 -7.487,-0.92 -11.847,-0.75 -4.601,0.17 -9.554,0.72 -14.73,1.48 -5.316,0.77 -10.715,1.74 -16.078,2.74 -2.668,0.5 -5.285,1 -7.836,1.49 -2.449,0.47 -4.817,0.94 -7.09,1.37 -2.207,0.42 -4.293,0.82 -6.254,1.17 -1.82,0.33 -3.512,0.63 -5.062,0.88 -1.426,0.23 -2.707,0.42 -3.844,0.56 -0.996,0.12 -1.856,0.21 -2.578,0.24 -0.59,0.02 -1.055,0.01 -1.391,-0.06 -0.234,-0.06 -0.39,-0.19 -0.359,-0.32 0.101,-0.39 0.816,-0.74 1.664,-1.15 1.031,-0.5 2.23,-0.99 3.5,-1.47 1.336,-0.51 2.672,-0.99 3.926,-1.44 1.238,-0.44 2.359,-0.84 3.269,-1.22 0.867,-0.37 1.524,-0.71 1.863,-1.08 0.321,-0.35 0.336,-0.76 0.016,-1.26 -0.34,-0.52 -1.059,-1.18 -1.988,-2.03 -1.043,-0.96 -2.367,-2.17 -3.778,-3.7 -0.23,-0.25 -0.461,-0.51 -0.695,-0.78"
     stroke="#e2e8e5"
     stroke-width="0.35"
     stroke-linecap="round"
     stroke-linejoin="round"
     id="path261" /><path
     d="m 42.727,173.19 1.411,-1.15 1.434,-1.12 1.453,-1.09 1.473,-1.05 1.49,-1.01 1.507,-0.99 1.521,-0.95 1.535,-0.92 c 4.051,-2.36 8.191,-4.34 12.32,-5.97 4.008,-1.59 7.977,-2.84 11.797,-3.78 3.68,-0.92 7.203,-1.56 10.492,-2 3.141,-0.42 6.055,-0.65 8.68,-0.77 2.49,-0.12 4.72,-0.14 6.63,-0.14 1.82,0 3.35,0.03 4.54,0.02 2.29,-0.01 3.37,-0.15 3.35,-0.57 -0.01,-0.35 -1,-0.95 -2.72,-1.35 -1.58,-0.38 -3.86,-0.58 -6.3,-0.13 -2.36,0.44 -4.953,1.57 -7.235,3.38 -2.371,1.89 -4.484,4.54 -6.222,7.6 -1.832,3.22 -3.27,6.86 -4.422,10.66 -1.176,3.89 -2.035,7.86 -2.68,11.8 -0.633,3.88 -1.043,7.63 -1.261,11.19 -0.211,3.41 -0.243,6.59 -0.067,9.47 0.168,2.72 0.527,5.16 1.129,7.26 0.574,2 1.391,3.72 2.457,5.12 1.055,1.39 2.391,2.5 3.938,3.41 1.585,0.93 3.421,1.66 5.425,2.3 2.078,0.68 4.336,1.26 6.698,1.86 4.93,1.25 10.19,2.54 15.26,4.37 5.05,1.81 9.75,4.06 13.56,6.96 3.64,2.79 6.42,6.2 7.96,10.06 2.97,7.54 0.91,17.03 -2.93,25.25 -1.9,4.06 -4.12,7.82 -5.97,11.25 -1.8,3.35 -3.21,6.42 -3.86,9.19 -0.31,1.38 -0.45,2.67 -0.41,3.89 0.05,1.18 0.25,2.25 0.62,3.21 0.34,0.86 0.8,1.59 1.43,2.05 0.51,0.38 1.23,0.54 1.86,0.23 0.7,-0.34 1.36,-1.19 1.87,-2.33 0.62,-1.37 1.07,-3.14 1.38,-5.19 0.35,-2.33 0.5,-4.92 0.47,-7.64 -0.04,-2.93 -0.29,-5.91 -0.79,-8.79 -0.53,-2.97 -1.31,-5.76 -2.42,-8.21 -1.13,-2.46 -2.61,-4.55 -4.49,-6.1 -1.94,-1.59 -4.33,-2.63 -7.16,-3.14 -2.98,-0.53 -6.48,-0.5 -10.39,-0.07 -4.17,0.46 -8.785,1.35 -13.742,2.45 -5.2,1.16 -10.657,2.52 -16.262,3.91 -5.652,1.39 -11.27,2.77 -16.734,3.99 -2.664,0.59 -5.254,1.14 -7.747,1.62 -2.375,0.47 -4.644,0.87 -6.804,1.21 -2.063,0.32 -3.992,0.57 -5.774,0.74 -1.644,0.15 -3.144,0.24 -4.504,0.25 -1.222,0 -2.308,-0.06 -3.246,-0.21 -0.824,-0.13 -1.523,-0.32 -2.07,-0.6 -0.852,-0.44 -1.262,-1.29 -1.07,-2.06 0.222,-0.88 0.929,-1.77 1.793,-2.62 0.941,-0.93 2.043,-1.79 3.175,-2.6 1.145,-0.81 2.282,-1.54 3.321,-2.2 0.996,-0.63 1.875,-1.18 2.535,-1.67 0.617,-0.46 1.027,-0.86 1.117,-1.27 0.086,-0.38 -0.148,-0.77 -0.676,-1.23 -0.566,-0.49 -1.484,-1.08 -2.59,-1.85 -1.242,-0.86 -2.73,-1.96 -4.296,-3.38 -1.219,-1.1 -2.485,-2.39 -3.723,-3.9"
     stroke="#e2e8e5"
     stroke-width="0.35"
     stroke-linecap="round"
     stroke-linejoin="round"
     id="path262" /><path
     d="m 23.324,197.97 0.52,-1.06 0.54,-1.06 0.56,-1.04 0.581,-1.05 0.6,-1.03 0.619,-1.03 0.639,-1.02 0.658,-1.01 0.675,-1 0.694,-0.99 0.712,-0.99 0.729,-0.97 0.747,-0.97 0.763,-0.96 0.78,-0.94 0.797,-0.94 c 2.8,-3.23 5.863,-6.24 9.101,-8.98 3.207,-2.72 6.563,-5.16 9.984,-7.33 3.348,-2.12 6.735,-3.96 10.075,-5.55 3.238,-1.53 6.414,-2.81 9.457,-3.88 2.925,-1.02 5.711,-1.85 8.3,-2.52 2.473,-0.65 4.758,-1.15 6.797,-1.56 3.821,-0.77 6.809,-1.22 8.629,-1.6 1.766,-0.37 2.528,-0.63 2.481,-0.92 -0.035,-0.17 -0.805,-0.37 -2.039,-0.17 -1.161,0.19 -2.782,0.74 -4.379,1.8 -1.633,1.09 -3.289,2.74 -4.696,4.8 -1.496,2.19 -2.738,4.82 -3.722,7.7 -1.031,3.01 -1.774,6.23 -2.297,9.51 -0.535,3.33 -0.832,6.67 -0.949,9.92 -0.114,3.2 -0.043,6.27 0.203,9.15 0.238,2.77 0.644,5.34 1.238,7.66 0.574,2.22 1.332,4.21 2.293,5.92 0.934,1.67 2.082,3.11 3.414,4.32 2.684,2.42 6.266,4.05 10.215,5.5 8.477,3.1 18.267,5.78 25.657,11.23 3.56,2.64 6.43,5.83 8.26,9.48 1.8,3.61 2.59,7.71 2.47,11.92 -0.25,8.51 -4.19,17 -7.33,24.27 -1.51,3.49 -2.74,6.74 -3.19,9.76 -0.43,3.02 -0.09,5.85 1.05,8.45 0.56,1.28 1.31,2.47 2.22,3.54 0.88,1.02 1.9,1.91 3.06,2.55 2.04,1.1 4.96,1.06 6.86,-0.76 1.12,-1.07 2.04,-2.63 2.74,-4.43 0.8,-2.07 1.32,-4.46 1.63,-7 0.33,-2.74 0.38,-5.57 0.19,-8.3 -0.21,-2.85 -0.68,-5.53 -1.46,-7.88 -1.59,-4.77 -4.57,-7.89 -9.08,-8.57 -2.43,-0.37 -5.34,-0.11 -8.67,0.58 -3.58,0.75 -7.65,1.99 -12.12,3.49 -4.77,1.59 -9.93,3.44 -15.389,5.32 -5.636,1.95 -11.437,3.88 -17.289,5.63 -2.922,0.88 -5.82,1.69 -8.672,2.43 -2.761,0.72 -5.46,1.36 -8.085,1.91 -2.563,0.54 -5.028,0.98 -7.375,1.31 -2.223,0.32 -4.325,0.54 -6.297,0.65 -1.856,0.11 -3.567,0.11 -5.133,0.01 -1.438,-0.1 -2.738,-0.29 -3.887,-0.59 -1.988,-0.51 -3.535,-1.38 -4.348,-2.55 -0.71,-1.02 -0.863,-2.34 -0.605,-3.59 0.273,-1.31 0.922,-2.59 1.723,-3.8 0.812,-1.23 1.761,-2.36 2.718,-3.38 0.934,-1.01 1.852,-1.89 2.657,-2.66 0.754,-0.73 1.394,-1.34 1.8,-1.86 0.379,-0.48 0.551,-0.88 0.418,-1.23 -0.136,-0.35 -0.597,-0.68 -1.296,-1.05 -0.774,-0.4 -1.856,-0.87 -3.11,-1.51 -1.402,-0.73 -3.027,-1.67 -4.722,-2.93 -1.891,-1.41 -3.864,-3.21 -5.723,-5.44 -0.563,-0.68 -1.117,-1.4 -1.653,-2.15"
     stroke="#e2e8e5"
     stroke-width="0.35"
     stroke-linecap="round"
     stroke-linejoin="round"
     id="path263" /><path
     d="m 22.812,199.22 0.58,-1.24 0.605,-1.23 0.631,-1.22 0.655,-1.21 0.68,-1.2 0.703,-1.19 0.727,-1.18 0.749,-1.16 0.771,-1.16 0.793,-1.14 0.814,-1.13 0.835,-1.11 0.854,-1.11 0.874,-1.08 0.893,-1.08 0.911,-1.06 c 4.84,-5.53 10.277,-10.27 15.816,-14.19 5.254,-3.71 10.485,-6.61 15.227,-8.85 4.39,-2.07 8.324,-3.57 11.425,-4.67 2.895,-1.03 5.106,-1.75 6.461,-2.21 1.352,-0.47 1.961,-0.71 2.012,-0.7 0.145,0.02 -0.367,0.3 -0.992,0.92 -0.664,0.66 -1.516,1.7 -2.305,3.06 -0.851,1.47 -1.629,3.29 -2.242,5.35 -1.348,4.52 -1.871,9.84 -1.75,15.18 0.063,2.71 0.293,5.37 0.684,7.92 0.382,2.51 0.918,4.89 1.613,7.08 0.68,2.14 1.512,4.11 2.508,5.86 0.972,1.72 2.117,3.24 3.41,4.58 5.144,5.3 13.346,7.82 21.296,11.44 8.11,3.7 15.55,8.74 19.16,15.9 3.58,7.13 3.17,16.12 0.65,24.46 -2.48,8.22 -6.65,15.39 -7.59,21.62 -0.46,3.02 -0.11,5.94 1.15,8.71 0.65,1.41 1.51,2.78 2.59,4.09 1.08,1.32 2.35,2.57 3.79,3.7 1.41,1.11 2.98,2.09 4.66,2.82 1.63,0.69 3.35,1.15 5.08,1.19 3.29,0.09 6.87,-1.94 8.94,-5.21 1.22,-1.93 2.11,-4.22 2.72,-6.65 0.67,-2.64 1,-5.4 1.08,-8.08 0.08,-2.79 -0.13,-5.45 -0.62,-7.76 -0.5,-2.34 -1.29,-4.31 -2.38,-5.72 -1.12,-1.43 -2.57,-2.28 -4.38,-2.51 -1.9,-0.25 -4.22,0.17 -6.92,1.09 -2.93,0.99 -6.33,2.55 -10.16,4.41 -4.14,2.02 -8.73,4.35 -13.73,6.77 -5.27,2.54 -10.86,5.11 -16.688,7.51 -5.89,2.43 -11.851,4.6 -17.75,6.37 -2.89,0.86 -5.726,1.61 -8.492,2.24 -2.656,0.6 -5.23,1.08 -7.711,1.42 -2.383,0.34 -4.652,0.53 -6.793,0.6 -2.019,0.06 -3.91,-0.01 -5.66,-0.21 -1.629,-0.18 -3.117,-0.48 -4.449,-0.91 -1.242,-0.39 -2.352,-0.89 -3.297,-1.48 -1.723,-1.09 -2.945,-2.59 -3.535,-4.21 -0.559,-1.54 -0.613,-3.22 -0.348,-4.83 0.262,-1.62 0.821,-3.17 1.5,-4.61 0.668,-1.41 1.438,-2.69 2.199,-3.83 0.719,-1.09 1.418,-2.02 1.985,-2.81 0.527,-0.74 0.937,-1.34 1.113,-1.8 0.164,-0.44 0.106,-0.77 -0.219,-1.02 -0.34,-0.26 -0.976,-0.46 -1.828,-0.7 -0.941,-0.26 -2.152,-0.57 -3.519,-1.06 -1.528,-0.54 -3.246,-1.29 -5.032,-2.36 -1.984,-1.18 -4.035,-2.75 -5.98,-4.76 -1.891,-1.96 -3.672,-4.33 -5.203,-7.1"
     stroke="#e2e8e5"
     stroke-width="0.35"
     stroke-linecap="round"
     stroke-linejoin="round"
     id="path264" /><path
     d="m 26.238,192.58 0.493,-0.85 0.503,-0.83 0.513,-0.83 0.523,-0.82 0.532,-0.82 0.541,-0.81 1.109,-1.59 1.142,-1.57 1.175,-1.54 1.205,-1.5 1.233,-1.47 c 3.984,-4.65 8.281,-8.69 12.531,-12.11 4.012,-3.23 7.918,-5.86 11.391,-7.95 3.242,-1.96 6.101,-3.47 8.34,-4.56 4.222,-2.07 6.422,-2.6 6.812,-2.27 0.36,0.32 0.317,0.91 0.258,1.74 -0.07,0.97 -0.211,2.19 -0.297,3.6 -0.195,3.24 -0.062,7.14 0.602,11.19 0.703,4.26 1.902,8.4 3.664,12.1 1.722,3.6 3.988,6.69 6.765,9.16 2.758,2.46 6.082,4.37 9.653,6.09 7.384,3.55 15.734,6.6 21.984,11.94 3.07,2.64 5.58,5.8 7.2,9.38 1.63,3.62 2.38,7.72 2.32,11.95 -0.14,8.75 -3.74,17.58 -7.25,25.24 -1.66,3.6 -3.2,6.9 -3.97,9.94 -0.72,2.93 -0.67,5.76 0.44,8.43 0.57,1.38 1.41,2.73 2.48,4.06 1.1,1.37 2.45,2.71 4,4 1.58,1.32 3.36,2.57 5.31,3.7 1.95,1.14 4.04,2.14 6.25,2.89 4.24,1.46 9.02,1.91 12.96,0.29 2,-0.82 3.82,-2.19 5.28,-3.9 1.59,-1.86 2.82,-4.16 3.72,-6.63 0.95,-2.64 1.53,-5.43 1.81,-8.14 0.3,-2.83 0.29,-5.53 0.02,-7.88 -0.28,-2.37 -0.82,-4.37 -1.61,-5.79 -0.81,-1.44 -1.89,-2.27 -3.25,-2.46 -1.42,-0.18 -3.19,0.35 -5.3,1.43 -2.27,1.17 -4.97,2.97 -8.1,5.15 -3.39,2.36 -7.26,5.13 -11.61,8.04 -4.63,3.1 -9.71,6.31 -15.18,9.38 -5.63,3.17 -11.52,6.12 -17.563,8.65 -3.012,1.26 -6.027,2.4 -9.023,3.41 -2.91,0.97 -5.789,1.81 -8.614,2.5 -2.781,0.67 -5.476,1.18 -8.074,1.53 -2.484,0.34 -4.863,0.52 -7.125,0.54 -2.148,0.02 -4.179,-0.11 -6.074,-0.39 -1.793,-0.27 -3.461,-0.67 -4.977,-1.21 -2.765,-0.99 -5.027,-2.47 -6.617,-4.24 -1.465,-1.64 -2.402,-3.57 -2.859,-5.53 -0.445,-1.9 -0.473,-3.84 -0.25,-5.68 0.215,-1.8 0.66,-3.49 1.195,-5.04 0.512,-1.48 1.102,-2.8 1.66,-3.95 0.52,-1.07 1.008,-1.97 1.36,-2.7 0.621,-1.28 0.66,-1.95 -0.262,-2.16 -0.516,-0.11 -1.289,-0.14 -2.254,-0.21 -1.066,-0.08 -2.367,-0.21 -3.816,-0.5 -1.602,-0.32 -3.379,-0.85 -5.215,-1.69 -2.02,-0.92 -4.11,-2.23 -6.094,-3.98 -2.187,-1.93 -4.25,-4.4 -5.969,-7.39 -0.937,-1.63 -1.777,-3.4 -2.488,-5.31"
     stroke="#e2e8e5"
     stroke-width="0.35"
     stroke-linecap="round"
     stroke-linejoin="round"
     id="path265" /><path
     d="m 23.07,198.66 0.338,-0.74 0.346,-0.74 0.353,-0.73 0.36,-0.74 0.368,-0.73 0.376,-0.72 0.383,-0.72 0.39,-0.72 c 2.641,-4.78 5.704,-9.21 8.95,-13.17 3.121,-3.82 6.363,-7.16 9.468,-10 2.934,-2.7 5.735,-4.93 8.176,-6.7 4.555,-3.29 7.942,-5.05 9.785,-5.36 2.047,-0.33 2.965,0.93 3.785,2.62 1.043,2.14 1.961,4.87 3.305,7.74 1.442,3.07 3.199,6.1 5.453,8.78 2.254,2.69 4.977,4.97 8.125,6.82 6.387,3.74 14.692,5.83 22.409,9.31 7.69,3.48 14.45,8.69 17.31,15.89 1.48,3.73 2.03,7.98 1.75,12.4 -0.29,4.58 -1.43,9.3 -3.11,13.92 -1.69,4.62 -3.87,8.98 -6.07,13 -2.09,3.83 -4.16,7.25 -5.5,10.34 -1.25,2.88 -1.81,5.57 -1.16,8.05 0.34,1.26 0.98,2.51 1.89,3.73 0.94,1.26 2.18,2.52 3.67,3.76 1.55,1.3 3.35,2.57 5.37,3.8 2.08,1.27 4.35,2.48 6.8,3.57 2.47,1.11 5.08,2.08 7.79,2.81 2.67,0.72 5.42,1.19 8.14,1.25 5.25,0.12 10.6,-1.68 14.14,-5.24 1.9,-1.92 3.41,-4.31 4.51,-6.87 1.18,-2.72 1.92,-5.63 2.35,-8.45 0.44,-2.94 0.54,-5.75 0.4,-8.2 -0.14,-2.46 -0.52,-4.55 -1.11,-6.03 -1.17,-2.99 -3.22,-3.26 -6.25,-0.97 -1.68,1.28 -3.7,3.27 -6.13,5.68 -2.63,2.63 -5.72,5.75 -9.31,9.08 -3.85,3.58 -8.22,7.36 -13.08,11.07 -5.07,3.87 -10.57,7.59 -16.41,10.92 -5.85,3.34 -11.891,6.21 -17.953,8.43 -2.969,1.08 -5.911,1.99 -8.801,2.72 -2.797,0.71 -5.535,1.24 -8.196,1.58 -2.57,0.33 -5.046,0.48 -7.402,0.45 -2.258,-0.03 -4.402,-0.22 -6.406,-0.58 -3.758,-0.67 -7.059,-1.94 -9.695,-3.68 -2.407,-1.6 -4.289,-3.61 -5.598,-5.79 -1.242,-2.05 -2.004,-4.28 -2.391,-6.47 -0.375,-2.1 -0.414,-4.17 -0.258,-6.12 0.149,-1.84 0.473,-3.56 0.864,-5.1 0.367,-1.43 0.781,-2.7 1.156,-3.76 0.34,-0.98 0.641,-1.77 0.801,-2.35 0.281,-1.05 -0.071,-1.34 -1.215,-1.2 -0.645,0.08 -1.512,0.24 -2.555,0.37 -1.144,0.14 -2.492,0.23 -3.984,0.16 -1.625,-0.08 -3.414,-0.35 -5.254,-0.94 -2.012,-0.64 -4.09,-1.65 -6.059,-3.11 -2.172,-1.6 -4.218,-3.75 -5.945,-6.4 -1.914,-2.93 -3.437,-6.51 -4.394,-10.55 -0.168,-0.72 -0.321,-1.46 -0.454,-2.2"
     stroke="#e2e8e5"
     stroke-width="0.35"
     stroke-linecap="round"
     stroke-linejoin="round"
     id="path266" /><path
     d="m 23.09,198.5 0.469,-1.06 0.483,-1.04 0.495,-1.03 0.507,-1.02 0.519,-1.01 0.53,-1 0.54,-0.99 0.551,-0.98 c 2.207,-3.86 4.613,-7.39 7.039,-10.52 2.324,-3 4.652,-5.61 6.816,-7.79 4.063,-4.1 7.57,-6.7 10.059,-7.77 2.527,-1.08 4.422,-0.69 6.007,0.29 4.016,2.49 7.2,7.18 12.793,10.38 2.836,1.62 6.125,2.87 9.786,3.81 3.746,0.96 7.902,1.64 12.199,2.43 8.797,1.6 17.957,3.75 24.287,8.64 3.09,2.4 5.48,5.51 6.83,9.08 0.7,1.85 1.15,3.85 1.36,5.93 0.22,2.17 0.19,4.44 -0.06,6.77 -0.53,4.89 -1.98,9.98 -4.05,15.02 -2.1,5.11 -4.77,9.98 -7.6,14.46 -1.37,2.18 -2.76,4.22 -4.08,6.15 -1.28,1.86 -2.5,3.59 -3.57,5.21 -1.02,1.54 -1.89,2.97 -2.52,4.33 -0.6,1.28 -0.97,2.51 -1.02,3.67 -0.05,1.14 0.22,2.26 0.81,3.33 0.61,1.11 1.57,2.2 2.82,3.28 1.31,1.14 2.95,2.28 4.84,3.41 1.99,1.19 4.25,2.37 6.72,3.5 2.57,1.19 5.34,2.32 8.27,3.33 2.99,1.03 6.1,1.92 9.3,2.57 6.33,1.27 12.95,1.5 18.6,-0.5 2.77,-0.99 5.34,-2.54 7.42,-4.53 2.16,-2.07 3.87,-4.64 5.12,-7.39 1.31,-2.9 2.13,-6 2.6,-9.01 0.49,-3.1 0.61,-6.08 0.51,-8.68 -0.11,-2.61 -0.43,-4.82 -0.9,-6.41 -0.46,-1.57 -1.06,-2.53 -1.78,-2.73 -0.74,-0.21 -1.63,0.37 -2.71,1.61 -1.16,1.33 -2.57,3.43 -4.32,6.01 -1.91,2.82 -4.21,6.21 -7.01,9.89 -3.02,3.97 -6.56,8.22 -10.68,12.49 -4.34,4.49 -9.21,8.91 -14.56,13.01 -5.45,4.16 -11.28,7.9 -17.32,10.97 -5.93,3.02 -11.944,5.34 -17.835,6.83 -2.835,0.71 -5.621,1.23 -8.324,1.54 -2.617,0.29 -5.152,0.4 -7.582,0.3 -4.57,-0.17 -8.73,-1.06 -12.273,-2.52 -3.336,-1.38 -6.172,-3.31 -8.395,-5.55 -2.074,-2.09 -3.636,-4.46 -4.738,-6.88 -1.051,-2.31 -1.695,-4.68 -2.047,-6.96 -0.332,-2.17 -0.402,-4.24 -0.316,-6.15 0.082,-1.8 0.293,-3.43 0.547,-4.85 0.238,-1.32 0.503,-2.44 0.714,-3.33 0.192,-0.82 0.336,-1.44 0.34,-1.83 0,-0.36 -0.136,-0.51 -0.437,-0.49 -0.321,0.03 -0.824,0.24 -1.496,0.52 -0.727,0.3 -1.649,0.68 -2.735,1.03 -1.168,0.37 -2.523,0.71 -4.011,0.88 -1.598,0.19 -3.348,0.18 -5.153,-0.13 -1.937,-0.33 -3.949,-1.03 -5.859,-2.17 -2.086,-1.25 -4.074,-3.04 -5.746,-5.32 -1.864,-2.55 -3.36,-5.73 -4.328,-9.38 -0.887,-3.35 -1.34,-7.08 -1.309,-11.09"
     stroke="#e2e8e5"
     stroke-width="0.35"
     stroke-linecap="round"
     stroke-linejoin="round"
     id="path267" /><path
     d="m 23.699,197.01 0.517,-1.13 0.528,-1.12 0.538,-1.1 0.547,-1.09 0.556,-1.06 0.563,-1.04 0.57,-1.02 0.576,-1 c 1.722,-2.95 3.496,-5.58 5.211,-7.84 3.246,-4.28 6.261,-7.2 8.703,-8.65 4.89,-2.9 8.469,-0.35 13.18,1.76 2.5,1.12 5.257,2.11 8.5,2.67 3.285,0.56 7.093,0.66 11.292,0.52 4.372,-0.14 9.18,-0.5 14.18,-0.61 5.106,-0.12 10.285,0.03 15.21,0.78 4.79,0.74 9.22,2.02 12.78,4.06 3.42,1.96 6.07,4.74 7.48,8.05 0.75,1.74 1.19,3.65 1.38,5.68 0.2,2.13 0.11,4.4 -0.22,6.77 -0.34,2.48 -0.94,5.06 -1.75,7.7 -0.84,2.73 -1.9,5.51 -3.13,8.29 -2.54,5.71 -5.74,11.24 -9.27,16.39 -1.72,2.52 -3.49,4.9 -5.25,7.14 -1.69,2.16 -3.35,4.16 -4.91,6.01 -1.484,1.76 -2.851,3.36 -4.011,4.83 -1.086,1.38 -1.981,2.65 -2.559,3.81 -1.062,2.15 -0.871,4.15 0.789,5.9 0.895,0.93 2.188,1.86 3.766,2.79 1.695,1 3.725,1.99 6.025,2.99 2.44,1.06 5.15,2.12 8.07,3.14 3.06,1.07 6.32,2.08 9.74,2.98 3.49,0.91 7.11,1.68 10.79,2.19 3.68,0.5 7.38,0.74 11.01,0.53 7.02,-0.4 13.85,-2.8 18.4,-7.27 2.34,-2.3 4.17,-5.14 5.46,-8.15 1.35,-3.16 2.14,-6.51 2.55,-9.77 0.42,-3.33 0.45,-6.51 0.28,-9.31 -0.18,-2.77 -0.56,-5.13 -1,-6.83 -0.86,-3.31 -1.93,-3.87 -3.24,-1.4 -0.73,1.36 -1.59,3.53 -2.71,6.23 -1.23,2.95 -2.79,6.53 -4.8,10.48 -2.19,4.26 -4.88,8.9 -8.19,13.64 -3.49,5.01 -7.59,10.05 -12.3,14.83 -4.83,4.91 -10.19,9.45 -15.95,13.37 -5.72,3.89 -11.72,7.09 -17.79,9.42 -5.861,2.24 -11.665,3.63 -17.169,4.12 -5.192,0.45 -10.114,0.1 -14.516,-0.99 -4.105,-1.01 -7.758,-2.68 -10.809,-4.77 -2.882,-1.98 -5.25,-4.35 -7.105,-6.88 -1.762,-2.41 -3.074,-4.96 -4.012,-7.49 -0.894,-2.4 -1.449,-4.77 -1.777,-7 -0.305,-2.11 -0.402,-4.08 -0.379,-5.85 0.016,-1.64 0.137,-3.1 0.277,-4.32 0.129,-1.12 0.278,-2.05 0.36,-2.71 0.074,-0.61 0.09,-1 -0.016,-1.14 -0.109,-0.14 -0.352,-0.05 -0.73,0.2 -0.403,0.27 -0.965,0.71 -1.676,1.22 -0.762,0.55 -1.692,1.16 -2.774,1.75 -1.148,0.63 -2.461,1.22 -3.902,1.65 -1.516,0.45 -3.176,0.74 -4.894,0.71 -1.813,-0.02 -3.708,-0.39 -5.504,-1.19 -1.942,-0.88 -3.805,-2.3 -5.372,-4.2 -1.746,-2.13 -3.148,-4.89 -4.074,-8.11 -0.785,-2.75 -1.23,-5.83 -1.308,-9.14 -0.082,-3.55 0.25,-7.36 1.008,-11.33"
     stroke="#e2e8e5"
     stroke-width="0.35"
     stroke-linecap="round"
     stroke-linejoin="round"
     id="path268" /><path
     d="m 22.758,199.31 0.355,-0.88 0.36,-0.87 0.365,-0.86 0.369,-0.84 0.374,-0.83 0.376,-0.81 0.379,-0.8 0.382,-0.78 0.384,-0.76 0.385,-0.74 0.387,-0.73 0.387,-0.71 0.387,-0.69 0.386,-0.67 0.386,-0.66 0.385,-0.63 c 2.472,-4.02 4.824,-6.75 6.863,-8.08 2.047,-1.33 3.996,-1.37 5.898,-0.92 4.348,1.02 8.711,3.45 15.364,2.81 3.429,-0.33 7.48,-1.36 12.019,-2.65 4.848,-1.38 10.258,-2.99 16.043,-4.23 5.953,-1.27 12.086,-2.1 18.028,-2.16 2.9,-0.03 5.69,0.12 8.34,0.47 2.54,0.34 4.92,0.87 7.06,1.59 4.02,1.38 7.26,3.63 8.95,6.45 0.88,1.47 1.42,3.16 1.66,4.97 0.25,1.93 0.17,4.05 -0.17,6.29 -0.37,2.41 -1.03,4.95 -1.92,7.61 -0.95,2.82 -2.14,5.72 -3.54,8.69 -1.45,3.07 -3.1,6.16 -4.92,9.25 -1.84,3.12 -3.83,6.19 -5.92,9.17 -2.09,2.96 -4.25,5.78 -6.45,8.46 -2.15,2.6 -4.29,5.02 -6.38,7.25 -1.988,2.13 -3.906,4.06 -5.664,5.81 -1.64,1.63 -3.128,3.09 -4.343,4.39 -1.121,1.2 -2.008,2.28 -2.508,3.24 -0.469,0.9 -0.586,1.74 -0.277,2.51 0.312,0.77 1.082,1.51 2.195,2.21 1.207,0.77 2.832,1.52 4.758,2.29 2.089,0.83 4.527,1.68 7.229,2.53 2.9,0.92 6.06,1.84 9.46,2.72 3.55,0.92 7.3,1.79 11.21,2.53 4,0.75 8.1,1.35 12.26,1.67 8.27,0.63 16.62,0.1 23.56,-2.94 3.37,-1.48 6.4,-3.58 8.8,-6.17 2.43,-2.63 4.26,-5.82 5.47,-9.17 1.27,-3.48 1.9,-7.15 2.12,-10.69 0.23,-3.59 0.04,-7 -0.32,-10 -0.37,-2.93 -0.89,-5.43 -1.41,-7.25 -0.5,-1.76 -0.99,-2.89 -1.38,-3.17 -0.41,-0.3 -0.73,0.25 -1.05,1.53 -0.35,1.37 -0.72,3.59 -1.27,6.37 -0.61,3.05 -1.45,6.77 -2.72,10.93 -1.36,4.49 -3.21,9.43 -5.69,14.56 -2.61,5.43 -5.88,10.99 -9.84,16.37 -4.09,5.55 -8.82,10.82 -14.12,15.51 -5.3,4.7 -11.06,8.73 -17.06,11.89 -5.84,3.07 -11.84,5.26 -17.71,6.48 -5.582,1.16 -10.996,1.42 -15.977,0.87 -4.754,-0.53 -9.148,-1.82 -12.984,-3.67 -3.61,-1.75 -6.731,-3.99 -9.313,-6.5 -2.465,-2.39 -4.449,-5.01 -6.011,-7.68 -1.485,-2.55 -2.583,-5.12 -3.383,-7.6 -0.758,-2.35 -1.242,-4.6 -1.543,-6.67 -0.278,-1.94 -0.395,-3.7 -0.422,-5.24 -0.024,-1.42 0.023,-2.64 0.082,-3.61 0.051,-0.87 0.109,-1.54 0.098,-1.92 -0.008,-0.36 -0.082,-0.48 -0.258,-0.36 -0.18,0.11 -0.477,0.47 -0.895,0.97 -0.441,0.53 -1.019,1.21 -1.726,1.97 -0.754,0.79 -1.645,1.66 -2.68,2.5 -1.078,0.88 -2.297,1.72 -3.648,2.43 -1.387,0.72 -2.903,1.29 -4.489,1.57 -1.625,0.29 -3.343,0.25 -4.98,-0.22 -1.735,-0.5 -3.422,-1.54 -4.817,-3.04 -1.57,-1.7 -2.824,-4.03 -3.64,-6.8 -0.457,-1.56 -0.785,-3.26 -0.977,-5.07 -0.203,-1.91 -0.25,-3.95 -0.148,-6.1 0.105,-2.25 0.379,-4.6 0.82,-7.04 0.461,-2.54 1.102,-5.17 1.918,-7.86 0.367,-1.2 0.77,-2.41 1.203,-3.62"
     stroke="#e2e8e5"
     stroke-width="0.35"
     stroke-linecap="round"
     stroke-linejoin="round"
     id="path269" /><path
     d="m 26.758,190.61 0.174,-0.33 0.173,-0.33 0.172,-0.32 0.172,-0.32 0.171,-0.3 0.17,-0.3 0.169,-0.29 0.169,-0.28 0.167,-0.27 0.167,-0.26 0.165,-0.26 0.165,-0.25 0.164,-0.24 0.163,-0.23 0.162,-0.23 0.161,-0.21 0.16,-0.21 0.159,-0.2 0.158,-0.19 0.157,-0.19 0.156,-0.17 0.154,-0.17 0.154,-0.16 0.153,-0.15 0.151,-0.14 0.15,-0.13 0.149,-0.13 0.148,-0.11 0.147,-0.11 0.146,-0.1 0.144,-0.09 0.143,-0.09 c 3.305,-1.8 6.332,2.09 10.82,3.75 2.278,0.84 4.871,1.09 7.934,0.31 1.57,-0.4 3.289,-1.06 5.148,-1.91 1.942,-0.88 4.055,-1.98 6.34,-3.19 2.403,-1.27 4.996,-2.65 7.778,-4.02 2.898,-1.44 5.976,-2.86 9.222,-4.17 6.707,-2.7 13.871,-4.8 21.077,-5.89 3.51,-0.53 6.95,-0.82 10.25,-0.84 3.16,-0.03 6.15,0.18 8.88,0.61 2.57,0.41 4.9,1.03 6.87,1.84 1.87,0.76 3.45,1.73 4.6,2.85 1.14,1.12 1.92,2.46 2.31,3.9 0.42,1.56 0.44,3.32 0.17,5.22 -0.31,2.11 -0.96,4.39 -1.86,6.84 -0.98,2.68 -2.25,5.51 -3.74,8.49 -1.58,3.15 -3.4,6.41 -5.42,9.72 -2.09,3.43 -4.35,6.86 -6.77,10.25 -4.85,6.83 -10.11,13.18 -15.44,18.78 -2.528,2.65 -5.013,5.08 -7.395,7.27 -2.243,2.07 -4.364,3.9 -6.274,5.51 -1.758,1.49 -3.316,2.77 -4.543,3.87 -1.113,1.01 -1.949,1.87 -2.328,2.62 -0.352,0.7 -0.285,1.33 0.234,1.88 0.551,0.57 1.606,1.11 3,1.64 1.551,0.58 3.528,1.16 5.813,1.76 2.512,0.67 5.367,1.36 8.504,2.06 3.369,0.75 7.009,1.51 10.879,2.23 4.06,0.75 8.31,1.44 12.71,1.98 4.51,0.56 9.1,0.95 13.73,1.02 4.61,0.08 9.2,-0.17 13.61,-0.93 4.31,-0.74 8.43,-1.99 12.06,-3.88 3.56,-1.85 6.69,-4.37 9.05,-7.38 2.4,-3.05 4.09,-6.66 5.07,-10.4 1.02,-3.87 1.33,-7.88 1.22,-11.73 -0.12,-3.87 -0.66,-7.5 -1.33,-10.68 -0.66,-3.08 -1.44,-5.69 -2.1,-7.59 -0.64,-1.8 -1.18,-2.97 -1.5,-3.27 -0.33,-0.31 -0.44,0.25 -0.44,1.56 -0.01,1.39 0.09,3.65 0.08,6.5 -0.02,3.13 -0.18,6.97 -0.72,11.28 -0.59,4.68 -1.61,9.86 -3.25,15.32 -1.74,5.77 -4.16,11.76 -7.33,17.66 -3.28,6.09 -7.31,11.99 -12.02,17.37 -4.74,5.4 -10.1,10.2 -15.87,14.13 -5.67,3.86 -11.65,6.81 -17.65,8.75 -5.75,1.86 -11.52,2.78 -17.004,2.78 -5.207,0 -10.133,-0.84 -14.558,-2.33 -4.223,-1.42 -8,-3.44 -11.247,-5.81 -3.101,-2.27 -5.73,-4.86 -7.898,-7.58 -2.07,-2.59 -3.723,-5.28 -5.023,-7.93 -1.235,-2.5 -2.149,-4.96 -2.825,-7.28 -0.629,-2.17 -1.043,-4.2 -1.308,-6.02 -0.246,-1.68 -0.367,-3.18 -0.418,-4.43 -0.051,-1.14 -0.043,-2.07 -0.039,-2.72 0.008,-1.16 -0.035,-1.32 -0.438,-0.56 -0.215,0.4 -0.527,1.03 -0.937,1.78 -0.438,0.8 -0.985,1.73 -1.649,2.74 -0.695,1.05 -1.508,2.16 -2.449,3.26 -0.965,1.12 -2.047,2.22 -3.254,3.2 -1.211,0.98 -2.531,1.83 -3.933,2.41 -1.391,0.58 -2.875,0.88 -4.305,0.74 -1.465,-0.14 -2.934,-0.79 -4.106,-1.9 -1.332,-1.27 -2.371,-3.17 -3.023,-5.47 -0.375,-1.32 -0.629,-2.77 -0.766,-4.33 -0.148,-1.67 -0.16,-3.47 -0.043,-5.36 0.121,-2.01 0.391,-4.13 0.805,-6.34 0.434,-2.31 1.02,-4.72 1.762,-7.2 1.449,-4.84 3.449,-9.85 5.965,-14.92"
     stroke="#e2e8e5"
     stroke-width="0.35"
     stroke-linecap="round"
     stroke-linejoin="round"
     id="path270" /><path
     d="m 29.305,186.35 0.058,-0.06 0.059,-0.07 0.058,-0.06 0.059,-0.06 0.058,-0.05 0.058,-0.05 0.057,-0.05 0.058,-0.04 0.056,-0.04 0.057,-0.04 0.056,-0.03 0.028,-0.02 0.028,-0.01 0.027,-0.02 0.028,-0.01 0.027,-0.01 0.027,-0.01 0.027,-0.01 0.027,-0.01 0.026,-0.01 0.027,-0.01 c 1.141,-0.33 2.176,1.15 3.473,2.82 1.546,2 3.23,4.27 5.238,5.94 2,1.67 4.215,2.61 6.797,2.04 1.301,-0.28 2.734,-0.95 4.289,-1.93 1.637,-1.03 3.449,-2.4 5.449,-3.98 2.145,-1.69 4.512,-3.61 7.137,-5.58 2.785,-2.1 5.836,-4.25 9.16,-6.32 7.023,-4.36 14.98,-8.13 23.43,-10.58 4.179,-1.21 8.376,-2.08 12.476,-2.6 3.95,-0.49 7.75,-0.64 11.3,-0.49 3.32,0.14 6.37,0.55 9.05,1.16 2.45,0.57 4.59,1.32 6.26,2.2 1.56,0.82 2.76,1.82 3.46,2.87 0.73,1.11 0.98,2.39 0.89,3.76 -0.1,1.57 -0.64,3.32 -1.43,5.27 -0.91,2.22 -2.15,4.67 -3.64,7.34 -1.63,2.94 -3.53,6.09 -5.67,9.41 -2.27,3.52 -4.74,7.15 -7.41,10.84 -5.53,7.64 -11.58,15.08 -17.92,21.89 -3.066,3.28 -6.128,6.34 -9.14,9.14 -2.863,2.66 -5.64,5.05 -8.262,7.16 -2.437,1.95 -4.703,3.64 -6.703,5.07 -1.812,1.3 -3.383,2.37 -4.562,3.25 -1.047,0.79 -1.781,1.43 -1.988,1.94 -0.192,0.49 0.117,0.9 0.875,1.24 0.832,0.37 2.195,0.71 3.906,1.07 0.933,0.19 1.972,0.38 3.101,0.59 1.192,0.21 2.481,0.43 3.856,0.66 1.445,0.24 2.976,0.49 4.586,0.75 1.679,0.26 3.441,0.53 5.273,0.81 3.863,0.58 7.998,1.17 12.378,1.7 4.58,0.56 9.34,1.04 14.25,1.35 5.02,0.32 10.1,0.44 15.18,0.21 10.03,-0.46 19.88,-2.37 27.41,-7.17 3.63,-2.32 6.71,-5.36 8.88,-8.86 2.2,-3.57 3.54,-7.67 4.1,-11.84 0.58,-4.3 0.39,-8.66 -0.24,-12.79 -0.63,-4.13 -1.66,-7.95 -2.76,-11.26 -1.06,-3.16 -2.17,-5.81 -3.04,-7.73 -0.83,-1.79 -1.45,-2.94 -1.7,-3.21 -0.26,-0.26 -0.17,0.34 0.14,1.68 0.33,1.45 0.9,3.76 1.41,6.68 0.57,3.2 1.09,7.13 1.26,11.6 0.19,4.82 -0.01,10.22 -0.84,15.95 -0.88,6.07 -2.44,12.42 -4.82,18.77 -2.46,6.55 -5.75,12.98 -9.83,18.96 -4.12,6.01 -8.98,11.47 -14.41,16.08 -5.34,4.53 -11.16,8.18 -17.16,10.8 -5.79,2.52 -11.71,4.05 -17.42,4.61 -5.52,0.54 -10.885,0.18 -15.831,-0.93 -4.703,-1.06 -9.023,-2.78 -12.836,-4.95 -3.656,-2.08 -6.855,-4.56 -9.586,-7.23 -2.609,-2.55 -4.785,-5.27 -6.582,-8.01 -1.703,-2.6 -3.054,-5.19 -4.121,-7.68 -1.004,-2.34 -1.746,-4.57 -2.297,-6.61 -0.507,-1.91 -0.847,-3.64 -1.066,-5.14 -0.203,-1.38 -0.309,-2.56 -0.359,-3.46 -0.051,-0.83 -0.059,-1.44 -0.071,-1.75 -0.027,-0.58 -0.125,-0.02 -0.5,1.26 -0.207,0.7 -0.488,1.59 -0.855,2.6 -0.387,1.07 -0.864,2.26 -1.442,3.51 -0.593,1.3 -1.289,2.65 -2.086,4 -0.808,1.36 -1.714,2.7 -2.726,3.94 -0.996,1.22 -2.078,2.32 -3.246,3.21 -1.114,0.83 -2.305,1.45 -3.492,1.65 -1.133,0.18 -2.336,-0.09 -3.243,-0.82 -1.043,-0.86 -1.816,-2.34 -2.257,-4.18 -0.258,-1.08 -0.414,-2.28 -0.473,-3.59 -0.063,-1.43 -0.012,-2.97 0.144,-4.61 0.168,-1.76 0.461,-3.62 0.872,-5.59 0.433,-2.07 0.996,-4.24 1.687,-6.5 1.168,-3.79 2.676,-7.75 4.512,-11.82 1.933,-4.28 4.207,-8.63 6.793,-12.98"
     stroke="#e2e8e5"
     stroke-width="0.35"
     stroke-linecap="round"
     stroke-linejoin="round"
     id="path271" /><path
     d="m 31.281,185.9 0.046,0.17 0.048,0.17 0.05,0.18 0.051,0.18 0.053,0.19 0.054,0.2 0.057,0.19 0.058,0.2 0.061,0.21 0.062,0.21 0.064,0.21 0.066,0.21 0.069,0.22 0.07,0.23 0.073,0.22 0.075,0.23 c 1.043,3.17 2.555,6.75 4.399,9.86 0.922,1.56 1.89,2.94 2.91,4 0.98,1.03 2.004,1.75 3.074,2 1.043,0.24 2.172,0.02 3.359,-0.67 1.243,-0.73 2.614,-1.99 4.133,-3.58 1.66,-1.74 3.528,-3.88 5.68,-6.22 2.336,-2.53 4.984,-5.27 8.008,-8.03 3.207,-2.92 6.789,-5.82 10.738,-8.52 4.09,-2.79 8.504,-5.33 13.176,-7.48 4.699,-2.17 9.57,-3.9 14.485,-5.14 4.81,-1.22 9.55,-1.93 14.11,-2.18 4.29,-0.23 8.31,-0.03 11.96,0.49 3.32,0.47 6.25,1.2 8.7,2.07 2.16,0.76 3.96,1.65 5.19,2.51 1.14,0.82 1.86,1.71 2.08,2.55 0.25,0.97 -0.02,2.02 -0.56,3.21 -0.32,0.7 -0.73,1.44 -1.22,2.24 -0.52,0.89 -1.14,1.84 -1.82,2.86 -0.74,1.11 -1.55,2.3 -2.44,3.57 -0.94,1.35 -1.95,2.77 -3.03,4.28 -2.33,3.24 -4.91,6.74 -7.73,10.45 -2.98,3.92 -6.14,7.96 -9.5,12.04 -3.41,4.16 -6.94,8.27 -10.58,12.27 -3.59,3.94 -7.22,7.7 -10.852,11.2 -3.5,3.39 -6.946,6.48 -10.285,9.26 -1.598,1.32 -3.161,2.57 -4.684,3.74 -1.465,1.12 -2.883,2.15 -4.25,3.11 -1.305,0.92 -2.555,1.76 -3.738,2.52 -1.125,0.73 -2.184,1.38 -3.164,1.97 -0.922,0.55 -1.774,1.04 -2.528,1.47 -0.707,0.4 -1.328,0.75 -1.839,1.06 -0.93,0.54 -1.497,0.95 -1.481,1.22 0.02,0.27 0.629,0.45 1.652,0.6 0.563,0.08 1.254,0.16 2.047,0.24 0.852,0.09 1.817,0.18 2.879,0.28 1.133,0.11 2.371,0.22 3.707,0.34 1.406,0.14 2.914,0.28 4.516,0.43 1.676,0.16 3.441,0.33 5.293,0.5 1.929,0.19 3.941,0.38 6.027,0.57 4.391,0.4 9.059,0.79 13.97,1.11 5.12,0.34 10.43,0.59 15.85,0.62 11.08,0.06 22.29,-0.7 32.32,-4.05 4.63,-1.55 23.1,-7.96 23.11,-29.89 0,-17.32 -11.23,-34.61 -11.43,-34.93 -0.66,-1.07 -1.11,-1.73 -1.23,-1.87 -0.16,-0.16 0.19,0.53 0.84,1.93 0.72,1.53 1.79,3.9 2.87,6.88 1.19,3.29 2.39,7.3 3.3,11.9 0.97,4.97 1.59,10.54 1.57,16.54 -0.02,6.31 -0.74,12.99 -2.34,19.73 -1.65,6.94 -4.2,13.84 -7.65,20.34 -3.49,6.52 -7.83,12.54 -12.88,17.73 -9.8,10.09 -22.06,16.62 -34.07,18.78 -11.17,2 -21.949,0.27 -30.656,-3.66 -4.109,-1.85 -7.789,-4.17 -11.007,-6.74 -3.082,-2.46 -5.731,-5.15 -7.981,-7.9 -2.141,-2.62 -3.906,-5.28 -5.355,-7.87 -1.371,-2.45 -2.45,-4.82 -3.293,-7.04 -0.789,-2.06 -1.368,-3.98 -1.789,-5.69 -0.391,-1.57 -0.645,-2.96 -0.805,-4.09 -0.145,-1.04 -0.211,-1.86 -0.238,-2.39 -0.028,-0.5 -0.024,-0.72 -0.024,-0.72 0,0 -0.008,0.35 -0.054,0.86 -0.051,0.55 -0.145,1.32 -0.29,2.25 -0.152,0.99 -0.367,2.15 -0.652,3.41 -0.297,1.32 -0.664,2.75 -1.105,4.25 -0.457,1.53 -0.989,3.11 -1.606,4.69 -0.613,1.58 -1.301,3.14 -2.074,4.62 -0.746,1.44 -1.555,2.78 -2.438,3.93 -0.812,1.06 -1.66,1.95 -2.554,2.48 -0.778,0.46 -1.676,0.57 -2.281,0.16 -0.704,-0.47 -1.153,-1.56 -1.352,-2.94 -0.121,-0.85 -0.156,-1.82 -0.113,-2.89 0.043,-1.18 0.179,-2.47 0.398,-3.86 0.238,-1.51 0.574,-3.12 1.008,-4.83 0.457,-1.83 1.019,-3.74 1.683,-5.75 0.711,-2.13 1.528,-4.35 2.454,-6.63 0.964,-2.39 2.043,-4.83 3.226,-7.32 2.488,-5.23 5.41,-10.57 8.735,-15.93 0.511,-0.83 1.035,-1.66 1.566,-2.48"
     stroke="#e2e8e5"
     stroke-width="0.35"
     stroke-linecap="round"
     stroke-linejoin="round"
     id="path272" /></g>















































































































































































































































































































</g>
  <metadata
     id="metadata1">
    <rdf:RDF>
      <cc:Work
         rdf:about="">
        <dc:title>SVG drawing</dc:title>
      </cc:Work>
    </rdf:RDF>
  </metadata>
</svg>
